M48
INCH,TZ
T1C0.0295
T2C0.0315
T3C0.0394
%
G90
G05
T1
X20500Y-19150
X21000Y-19150
X21500Y-19150
X23792Y-18750
X23792Y-19250
X23792Y-19750
X30700Y-15442
X31000Y-10242
X31200Y-15442
X31500Y-10242
X31700Y-15442
X32000Y-10242
X34000Y-9650
X34000Y-10150
X34000Y-10650
X34050Y-14800
X34050Y-15300
X34050Y-15800
X37458Y-13700
X37458Y-14200
X37458Y-14700
T2
X15850Y-15800
X15850Y-19800
X17450Y-15800
X17450Y-19800
X17850Y-10300
X17850Y-14300
X18600Y-7424
X18600Y-8211
X18850Y-10300
X18850Y-14300
X19050Y-15800
X19050Y-19800
X19850Y-10300
X19850Y-14300
X20650Y-15750
X20650Y-17200
X20750Y-6750
X20750Y-8750
X20850Y-10300
X20850Y-14300
X21850Y-10300
X21850Y-14300
X22850Y-10300
X22850Y-14300
X23850Y-10300
X23850Y-14300
X24650Y-15750
X24650Y-17200
X24750Y-6750
X24750Y-8750
X26050Y-17600
X26050Y-19450
X26100Y-6592
X26100Y-10592
X26500Y-11950
X26500Y-15950
X27800Y-6592
X27800Y-10592
X27900Y-11950
X27900Y-15950
X29350Y-6592
X29350Y-10592
X29400Y-11950
X29400Y-15950
X30050Y-17600
X30050Y-19450
X30500Y-12100
X30500Y-13500
X30700Y-6750
X30750Y-8350
X31350Y-17600
X31350Y-19400
X34500Y-12100
X34500Y-13500
X34700Y-6750
X34750Y-8350
X35350Y-17600
X35350Y-19400
X36000Y-12150
X36200Y-6600
X36200Y-10600
X37600Y-16750
X37600Y-20750
X37750Y-6550
X37750Y-10550
X39000Y-12150
X39250Y-6550
X39250Y-10550
T3
X16250Y-6250
X16250Y-7250
X16250Y-8250
X16250Y-9250
X16250Y-10250
X16250Y-11250
X16250Y-12250
X16250Y-13250
X39050Y-16200
X39050Y-17200
X39050Y-18200
X39050Y-19200
X39050Y-20200
T0
M30
