G04 #@! TF.GenerationSoftware,KiCad,Pcbnew,6.0.0-d3dd2cf0fa~116~ubuntu20.04.1*
G04 #@! TF.CreationDate,2022-01-14T17:34:53+00:00*
G04 #@! TF.ProjectId,videopac_rgb,76696465-6f70-4616-935f-7267622e6b69,rev?*
G04 #@! TF.SameCoordinates,Original*
G04 #@! TF.FileFunction,Copper,L2,Bot*
G04 #@! TF.FilePolarity,Positive*
%FSLAX46Y46*%
G04 Gerber Fmt 4.6, Leading zero omitted, Abs format (unit mm)*
G04 Created by KiCad (PCBNEW 6.0.0-d3dd2cf0fa~116~ubuntu20.04.1) date 2022-01-14 17:34:53*
%MOMM*%
%LPD*%
G01*
G04 APERTURE LIST*
G04 #@! TA.AperFunction,ComponentPad*
%ADD10R,1.700000X1.700000*%
G04 #@! TD*
G04 #@! TA.AperFunction,ComponentPad*
%ADD11O,1.700000X1.700000*%
G04 #@! TD*
G04 #@! TA.AperFunction,ComponentPad*
%ADD12R,1.500000X1.050000*%
G04 #@! TD*
G04 #@! TA.AperFunction,ComponentPad*
%ADD13O,1.500000X1.050000*%
G04 #@! TD*
G04 #@! TA.AperFunction,ComponentPad*
%ADD14R,1.050000X1.500000*%
G04 #@! TD*
G04 #@! TA.AperFunction,ComponentPad*
%ADD15O,1.050000X1.500000*%
G04 #@! TD*
G04 #@! TA.AperFunction,ComponentPad*
%ADD16C,1.600000*%
G04 #@! TD*
G04 #@! TA.AperFunction,ComponentPad*
%ADD17O,1.600000X1.600000*%
G04 #@! TD*
G04 #@! TA.AperFunction,ComponentPad*
%ADD18R,1.600000X1.600000*%
G04 #@! TD*
G04 #@! TA.AperFunction,Conductor*
%ADD19C,0.500000*%
G04 #@! TD*
G04 APERTURE END LIST*
D10*
X99105000Y-40140000D03*
D11*
X99105000Y-42680000D03*
X99105000Y-45220000D03*
X99105000Y-47760000D03*
X99105000Y-50300000D03*
X99105000Y-52840000D03*
D12*
X86487000Y-37592000D03*
D13*
X86487000Y-38862000D03*
X86487000Y-40132000D03*
D14*
X78740000Y-26014000D03*
D15*
X80010000Y-26014000D03*
X81280000Y-26014000D03*
D16*
X77470000Y-34290000D03*
D17*
X87630000Y-34290000D03*
D16*
X89789000Y-49276000D03*
D17*
X79629000Y-49276000D03*
D16*
X88265000Y-21209000D03*
D17*
X78105000Y-21209000D03*
D16*
X74676000Y-30353000D03*
D17*
X74676000Y-40513000D03*
D12*
X94510000Y-34620000D03*
D13*
X94510000Y-35890000D03*
X94510000Y-37160000D03*
D16*
X62865000Y-22225000D03*
D17*
X52705000Y-22225000D03*
D10*
X41275000Y-33655000D03*
D11*
X41275000Y-31115000D03*
X41275000Y-28575000D03*
X41275000Y-26035000D03*
X41275000Y-23495000D03*
X41275000Y-20955000D03*
X41275000Y-18415000D03*
X41275000Y-15875000D03*
D14*
X77978000Y-39222000D03*
D15*
X79248000Y-39222000D03*
X80518000Y-39222000D03*
D16*
X99695000Y-26797000D03*
D17*
X99695000Y-16637000D03*
D16*
X66167000Y-49403000D03*
D17*
X76327000Y-49403000D03*
D16*
X89789000Y-44704000D03*
D17*
X79629000Y-44704000D03*
D16*
X91948000Y-16764000D03*
D17*
X91948000Y-26924000D03*
D16*
X77978000Y-17145000D03*
D17*
X88138000Y-17145000D03*
D16*
X67310000Y-30353000D03*
D17*
X67310000Y-40513000D03*
D16*
X48387000Y-50292000D03*
D17*
X48387000Y-40132000D03*
D16*
X52451000Y-40005000D03*
D17*
X62611000Y-40005000D03*
D16*
X40259000Y-40132000D03*
D17*
X40259000Y-50292000D03*
D14*
X54610000Y-48641000D03*
D15*
X53340000Y-48641000D03*
X52070000Y-48641000D03*
D16*
X95885000Y-26797000D03*
D17*
X95885000Y-16637000D03*
D12*
X86360000Y-24511000D03*
D13*
X86360000Y-25781000D03*
X86360000Y-27051000D03*
D16*
X70612000Y-16743000D03*
D17*
X70612000Y-26903000D03*
D16*
X62865000Y-17145000D03*
D17*
X52705000Y-17145000D03*
D16*
X66167000Y-44704000D03*
D17*
X76327000Y-44704000D03*
D12*
X60431000Y-50165000D03*
D13*
X60431000Y-48895000D03*
X60431000Y-47625000D03*
D16*
X70866000Y-30353000D03*
D17*
X70866000Y-40513000D03*
D16*
X66294000Y-16743000D03*
D17*
X66294000Y-26903000D03*
D18*
X47244000Y-18856888D03*
D16*
X47244000Y-20856888D03*
X62611000Y-43688000D03*
D17*
X52451000Y-43688000D03*
D18*
X60579000Y-26162000D03*
D17*
X58039000Y-26162000D03*
X55499000Y-26162000D03*
X52959000Y-26162000D03*
X50419000Y-26162000D03*
X47879000Y-26162000D03*
X45339000Y-26162000D03*
X45339000Y-36322000D03*
X47879000Y-36322000D03*
X50419000Y-36322000D03*
X52959000Y-36322000D03*
X55499000Y-36322000D03*
X58039000Y-36322000D03*
X60579000Y-36322000D03*
D16*
X87630000Y-30734000D03*
D17*
X77470000Y-30734000D03*
D16*
X95504000Y-52705000D03*
D17*
X95504000Y-42545000D03*
D16*
X44323000Y-40132000D03*
D17*
X44323000Y-50292000D03*
D16*
X74549000Y-16743000D03*
D17*
X74549000Y-26903000D03*
D18*
X99060000Y-30861000D03*
D17*
X91440000Y-30861000D03*
D19*
X99695000Y-16637000D02*
X100944511Y-17886511D01*
X100944511Y-17886511D02*
X100944511Y-38300489D01*
X100944511Y-38300489D02*
X99105000Y-40140000D01*
X94107000Y-41529000D02*
X95709520Y-39926480D01*
X95709520Y-39926480D02*
X95709520Y-35028520D01*
X95709520Y-35028520D02*
X95301000Y-34620000D01*
X94510000Y-34620000D02*
X95301000Y-34620000D01*
X95301000Y-34620000D02*
X99060000Y-30861000D01*
X91440000Y-30861000D02*
X91440000Y-33724022D01*
X91440000Y-33724022D02*
X93605978Y-35890000D01*
X93605978Y-35890000D02*
X94510000Y-35890000D01*
X92075000Y-49355742D02*
X92075000Y-44323000D01*
X90630742Y-50800000D02*
X92075000Y-49355742D01*
X74676000Y-42926000D02*
X80645000Y-42926000D01*
X88519000Y-50800000D02*
X90630742Y-50800000D01*
X70866000Y-30353000D02*
X72115511Y-31602511D01*
X87884000Y-40132000D02*
X86487000Y-40132000D01*
X72115511Y-40365511D02*
X74676000Y-42926000D01*
X80645000Y-42926000D02*
X88519000Y-50800000D01*
X72115511Y-31602511D02*
X72115511Y-40365511D01*
X92075000Y-44323000D02*
X87884000Y-40132000D01*
X99105000Y-47760000D02*
X94660000Y-47760000D01*
X94660000Y-47760000D02*
X90730000Y-51690000D01*
X90730000Y-51690000D02*
X86615000Y-51690000D01*
X86615000Y-51690000D02*
X82296000Y-47371000D01*
X82296000Y-47371000D02*
X74168000Y-47371000D01*
X74168000Y-47371000D02*
X67310000Y-40513000D01*
X66294000Y-16743000D02*
X72009511Y-22458511D01*
X72009511Y-22458511D02*
X77358533Y-22458511D01*
X80010000Y-25109978D02*
X80010000Y-26014000D01*
X77358533Y-22458511D02*
X80010000Y-25109978D01*
X66294000Y-16743000D02*
X65446489Y-15895489D01*
X65446489Y-15895489D02*
X53954511Y-15895489D01*
X53954511Y-15895489D02*
X52705000Y-17145000D01*
X99105000Y-40140000D02*
X97909000Y-40140000D01*
X97909000Y-40140000D02*
X95504000Y-42545000D01*
X44323000Y-50292000D02*
X46736000Y-52705000D01*
X46736000Y-52705000D02*
X92329000Y-52705000D01*
X92329000Y-52705000D02*
X94734000Y-50300000D01*
X94734000Y-50300000D02*
X99105000Y-50300000D01*
X95631000Y-46228000D02*
X98097000Y-46228000D01*
X98097000Y-46228000D02*
X99105000Y-45220000D01*
X95123000Y-44323000D02*
X97462000Y-44323000D01*
X97462000Y-44323000D02*
X99105000Y-42680000D01*
X95123000Y-44323000D02*
X94107000Y-43307000D01*
X94107000Y-43307000D02*
X94107000Y-41529000D01*
X66167000Y-44704000D02*
X66060489Y-44597489D01*
X61468000Y-32766000D02*
X48895000Y-32766000D01*
X48895000Y-32766000D02*
X45339000Y-36322000D01*
X66060489Y-44597489D02*
X66060489Y-37358489D01*
X66060489Y-37358489D02*
X61468000Y-32766000D01*
X77470000Y-30734000D02*
X80518000Y-33782000D01*
X80518000Y-33782000D02*
X80518000Y-39222000D01*
X79248000Y-33782000D02*
X79248000Y-39222000D01*
X74676000Y-30353000D02*
X77089000Y-32766000D01*
X78232000Y-32766000D02*
X79248000Y-33782000D01*
X77089000Y-32766000D02*
X78232000Y-32766000D01*
X88646000Y-35306000D02*
X87630000Y-34290000D01*
X88646000Y-38227000D02*
X88646000Y-35306000D01*
X86487000Y-38862000D02*
X88011000Y-38862000D01*
X88011000Y-38862000D02*
X88646000Y-38227000D01*
X87630000Y-30734000D02*
X87630000Y-34290000D01*
X70866000Y-30353000D02*
X67310000Y-30353000D01*
X54498022Y-51435000D02*
X49149000Y-51435000D01*
X60431000Y-48895000D02*
X57038022Y-48895000D01*
X61849000Y-48895000D02*
X60431000Y-48895000D01*
X57038022Y-48895000D02*
X54498022Y-51435000D01*
X73914000Y-51816000D02*
X64770000Y-51816000D01*
X76327000Y-49403000D02*
X73914000Y-51816000D01*
X76454000Y-49276000D02*
X76327000Y-49403000D01*
X79629000Y-49276000D02*
X76454000Y-49276000D01*
X64770000Y-51816000D02*
X61849000Y-48895000D01*
X49149000Y-51435000D02*
X48387000Y-50673000D01*
X48387000Y-50673000D02*
X48387000Y-50292000D01*
X52832000Y-35179000D02*
X52832000Y-36195000D01*
X61468000Y-34036000D02*
X53975000Y-34036000D01*
X53975000Y-34036000D02*
X52832000Y-35179000D01*
X64770000Y-37338000D02*
X61468000Y-34036000D01*
X64770000Y-48006000D02*
X64770000Y-37338000D01*
X66167000Y-49403000D02*
X64770000Y-48006000D01*
X52832000Y-36195000D02*
X52959000Y-36322000D01*
X53340000Y-46736000D02*
X53340000Y-48641000D01*
X52451000Y-45847000D02*
X53340000Y-46736000D01*
X52451000Y-40005000D02*
X52451000Y-43688000D01*
X52451000Y-43688000D02*
X52451000Y-45847000D01*
X85988370Y-27051000D02*
X86360000Y-27051000D01*
X74549000Y-16743000D02*
X75680370Y-16743000D01*
X70612000Y-16743000D02*
X74549000Y-16743000D01*
X75680370Y-16743000D02*
X85988370Y-27051000D01*
X74549000Y-26903000D02*
X76814000Y-26903000D01*
X87376000Y-28575000D02*
X90170000Y-31369000D01*
X90170000Y-36957000D02*
X90170000Y-40767000D01*
X90170000Y-40767000D02*
X95631000Y-46228000D01*
X76814000Y-26903000D02*
X78486000Y-28575000D01*
X78486000Y-28575000D02*
X87376000Y-28575000D01*
X90170000Y-31369000D02*
X90170000Y-37211000D01*
X60431000Y-42185000D02*
X60431000Y-47625000D01*
X62611000Y-40005000D02*
X60431000Y-42185000D01*
X44323000Y-40132000D02*
X52070000Y-47879000D01*
X44323000Y-40132000D02*
X40259000Y-40132000D01*
X52070000Y-47879000D02*
X52070000Y-48641000D01*
X95885000Y-26797000D02*
X99060000Y-29972000D01*
X99060000Y-29972000D02*
X99060000Y-30861000D01*
X79629000Y-44704000D02*
X76327000Y-44704000D01*
X61849000Y-28256480D02*
X57593480Y-28256480D01*
X62865000Y-27240480D02*
X61849000Y-28256480D01*
X62865000Y-22225000D02*
X62865000Y-27240480D01*
X57593480Y-28256480D02*
X55499000Y-26162000D01*
X52705000Y-22225000D02*
X52705000Y-17145000D01*
X88265000Y-17272000D02*
X88138000Y-17145000D01*
X88265000Y-25273000D02*
X88265000Y-21209000D01*
X87757000Y-25781000D02*
X88265000Y-25273000D01*
X88265000Y-21209000D02*
X88265000Y-17272000D01*
X86360000Y-25781000D02*
X87757000Y-25781000D01*
X81280000Y-24384000D02*
X78105000Y-21209000D01*
X81280000Y-26014000D02*
X81280000Y-24384000D01*
X91948000Y-16764000D02*
X89470480Y-14286480D01*
X89470480Y-14286480D02*
X46389520Y-14286480D01*
X44801000Y-15875000D02*
X46389520Y-14286480D01*
X41275000Y-15875000D02*
X44801000Y-15875000D01*
X58166000Y-23749000D02*
X60579000Y-26162000D01*
X46422000Y-23749000D02*
X58166000Y-23749000D01*
X41275000Y-18415000D02*
X46422000Y-23562000D01*
X46422000Y-23562000D02*
X46422000Y-23749000D01*
X50419000Y-36957000D02*
X50419000Y-36322000D01*
X41275000Y-23495000D02*
X43815000Y-26035000D01*
X44512480Y-37781480D02*
X49594520Y-37781480D01*
X43815000Y-37084000D02*
X44512480Y-37781480D01*
X49594520Y-37781480D02*
X50419000Y-36957000D01*
X43815000Y-26035000D02*
X43815000Y-37084000D01*
X52959000Y-25654000D02*
X52959000Y-26162000D01*
X41275000Y-20955000D02*
X45212000Y-24892000D01*
X52197000Y-24892000D02*
X52959000Y-25654000D01*
X45212000Y-24892000D02*
X52197000Y-24892000D01*
X43053000Y-37846000D02*
X43815000Y-38608000D01*
X43053000Y-27813000D02*
X43053000Y-37846000D01*
X58039000Y-37592000D02*
X58039000Y-36322000D01*
X41275000Y-26035000D02*
X43053000Y-27813000D01*
X57023000Y-38608000D02*
X58039000Y-37592000D01*
X43815000Y-38608000D02*
X57023000Y-38608000D01*
X91948000Y-30353000D02*
X91440000Y-30861000D01*
X91948000Y-26924000D02*
X91948000Y-30353000D01*
X62865000Y-17145000D02*
X64643000Y-18923000D01*
X89789000Y-44704000D02*
X89789000Y-49276000D01*
X86360000Y-44704000D02*
X89789000Y-44704000D01*
X50673000Y-28956000D02*
X64516000Y-28956000D01*
X64643000Y-18923000D02*
X64643000Y-28829000D01*
X82677000Y-41021000D02*
X86360000Y-44704000D01*
X64643000Y-28829000D02*
X64516000Y-28956000D01*
X82677000Y-33909000D02*
X82677000Y-41021000D01*
X77724000Y-28956000D02*
X82677000Y-33909000D01*
X47879000Y-26162000D02*
X50673000Y-28956000D01*
X64516000Y-28956000D02*
X77724000Y-28956000D01*
X94488000Y-53721000D02*
X95504000Y-52705000D01*
X37338000Y-51435000D02*
X39624000Y-53721000D01*
X37338000Y-39878000D02*
X37338000Y-51435000D01*
X41275000Y-33655000D02*
X41275000Y-35941000D01*
X41275000Y-35941000D02*
X37338000Y-39878000D01*
X39624000Y-53721000D02*
X94488000Y-53721000D01*
M02*
